<svg width="7755" height="1681" viewBox="0 0 7755 1681" fill="none" xmlns="http://www.w3.org/2000/svg">
<path d="M1541.86 1504.66C1551.48 1504.43 1561.14 1503.85 1570.76 1503.01C1587.41 1514.64 1604.47 1525.58 1621.85 1535.98C1594.33 1527.33 1567.57 1516.94 1541.86 1504.66ZM1421.1 1428.65C1435.62 1424.35 1449.75 1419.47 1463.58 1414.22C1492.75 1442.81 1524.07 1469.25 1557.09 1493.29C1542.84 1493.16 1528.67 1492.39 1514.75 1491.07C1481.47 1473.28 1450.15 1452.36 1421.1 1428.65ZM1349.07 1444.73C1349.07 1444.69 1349.07 1444.69 1349.04 1444.69C1361.49 1442.94 1374.03 1440.52 1386.38 1437.73C1386.38 1437.73 1386.38 1437.73 1386.47 1437.73C1405.12 1453.03 1424.7 1467.13 1445.15 1479.98C1411.2 1471.9 1378.9 1460.26 1349.07 1444.73ZM1327.1 1432.25C1323.2 1429.9 1319.4 1427.47 1315.66 1424.95C1325.89 1417.25 1336.11 1409.34 1346.01 1401.21C1346.01 1401.21 1346.01 1401.21 1346.04 1401.21C1355.46 1410.59 1365.22 1419.57 1375.31 1428.32C1358.55 1430.5 1342.51 1431.92 1327.17 1432.25C1327.14 1432.25 1327.1 1432.25 1327.1 1432.25ZM1285.83 1402.45H1285.8C1276.07 1394.21 1266.85 1385.4 1258.1 1376.02V1375.98C1271.93 1367.14 1285.43 1357.72 1298.78 1347.97C1298.81 1347.97 1298.81 1347.97 1298.81 1347.94C1306.22 1357.56 1314.01 1366.84 1322.05 1375.84V1375.89C1310.22 1385.02 1298.13 1393.98 1285.83 1402.45ZM1249.83 1426.09C1232.27 1422.49 1216.23 1417.25 1201.69 1410.39C1212.05 1404.6 1222.28 1398.55 1232.4 1392.4C1232.4 1392.36 1232.4 1392.36 1232.44 1392.36C1241.55 1401.88 1251.17 1410.69 1261.2 1418.9C1257.5 1421.35 1253.66 1423.77 1249.83 1426.09ZM1155 1379.08C1149.65 1373.86 1144.57 1368.42 1140.06 1362.49C1156.21 1353.89 1172.26 1344.84 1187.96 1335.29C1189.27 1337.4 1190.59 1339.56 1191.97 1341.58C1196.74 1348.84 1201.69 1355.84 1206.8 1362.49V1362.63C1206.14 1363 1205.36 1363.4 1204.69 1363.77C1186.69 1370.23 1170.14 1375.31 1155 1379.08ZM1118.63 1327.15C1114.94 1319.38 1111.81 1311.11 1109.35 1302.4C1120.52 1296.01 1131.45 1289.71 1142.15 1283.32C1147.03 1280.16 1151.81 1277.04 1156.68 1273.91C1156.68 1273.91 1156.68 1273.94 1156.71 1273.98C1160.18 1282.63 1163.88 1291.1 1167.92 1299.4C1167.92 1299.44 1167.95 1299.47 1167.95 1299.51C1151.77 1309.02 1135.39 1318.31 1118.63 1327.15ZM1090.28 1387.32C1090.31 1387.28 1090.34 1387.28 1090.38 1387.25H1090.51C1098.41 1383.65 1106.22 1379.96 1113.89 1375.98C1116.55 1379.34 1119.2 1382.47 1122.14 1385.51C1110.46 1387.09 1099.83 1387.69 1090.28 1387.32ZM1036.65 1366.33C1036.62 1366.37 1036.59 1366.37 1036.55 1366.37C1031.64 1360.88 1027.98 1354.33 1025.35 1346.89C1044.52 1337.58 1063.33 1327.81 1081.66 1317.73C1084.59 1326 1087.96 1333.67 1091.55 1341C1073.52 1349.95 1055.16 1358.43 1036.65 1366.33ZM1023.1 1289.15C1027.17 1286.72 1031.27 1284.34 1035.31 1281.91C1046.38 1274.92 1057.38 1267.81 1068.31 1260.58C1068.88 1265.1 1069.45 1269.74 1070.26 1274.25C1061.88 1280.16 1053.54 1286.11 1045.03 1291.94C1044.93 1292.04 1044.79 1292.04 1044.79 1292.04C1036.96 1296.31 1029.08 1300.35 1021.21 1304.28C1021.62 1299.4 1022.26 1294.36 1023.1 1289.15ZM1040.39 1227.29C1048.76 1220.47 1057.17 1213.67 1065.52 1206.74V1206.94C1065.38 1209.44 1065.38 1211.83 1065.38 1214.22C1056.47 1220.43 1047.49 1226.55 1038.47 1232.64C1039.11 1230.85 1039.71 1229.11 1040.39 1227.29ZM1137.57 1212.49C1137.57 1212.49 1137.57 1212.53 1137.6 1212.53C1139.22 1219.69 1141.04 1226.76 1143.12 1233.85C1143.12 1233.85 1143.12 1233.85 1143.12 1233.89C1143.09 1233.89 1143.09 1233.89 1143.06 1233.92C1135.52 1238.89 1127.95 1243.67 1120.38 1248.45C1113.99 1252.52 1107.5 1256.45 1100.97 1260.29C1100.88 1259.15 1100.73 1258.1 1100.64 1256.92C1100.51 1255.55 1100.27 1254.13 1100.27 1252.75C1099.8 1248.45 1099.59 1244.04 1099.46 1239.54C1112.31 1230.69 1124.99 1221.64 1137.57 1212.49ZM1103.06 1175.29C1103.09 1175.2 1103.12 1175.06 1103.12 1174.92C1111.37 1167.9 1119.61 1160.9 1127.79 1153.81C1127.79 1153.84 1127.79 1153.84 1127.79 1153.87C1128.19 1158.48 1128.76 1163.19 1129.4 1167.83C1120.12 1174.79 1110.76 1181.72 1101.35 1188.58C1101.81 1184.21 1102.38 1179.77 1103.06 1175.29ZM1116.08 1111.13C1118.87 1107.87 1121.8 1104.61 1124.82 1101.38C1124.75 1102.04 1124.75 1102.69 1124.82 1103.36C1121.9 1106.04 1118.97 1108.74 1116.01 1111.4C1116.05 1111.29 1116.08 1111.2 1116.08 1111.13ZM1163.88 1121.93C1171.72 1114.89 1179.62 1107.97 1187.43 1100.9C1188.27 1105.21 1189.18 1109.58 1190.09 1113.85C1190.45 1115.84 1190.96 1117.82 1191.43 1119.73C1182.55 1126.83 1173.66 1133.93 1164.69 1140.92C1164.28 1134.61 1164.04 1128.38 1163.88 1122.09V1121.93ZM1165.53 1056.47C1169.7 1051.73 1173.97 1046.99 1178.38 1042.35C1178.71 1045.88 1179.12 1049.51 1179.59 1053.04C1174.65 1057.62 1169.74 1062.26 1164.79 1066.83C1164.96 1063.4 1165.19 1059.91 1165.53 1056.47ZM1202.91 1163.06C1202.91 1163.06 1202.91 1163.09 1202.94 1163.09C1205.39 1171.32 1208.12 1179.3 1210.91 1187.27C1210.87 1187.27 1210.87 1187.27 1210.87 1187.27V1187.41C1198.76 1196.11 1186.69 1204.73 1174.34 1212.96C1173.84 1210.57 1173.26 1208.23 1172.76 1205.76C1171.69 1200.08 1170.71 1194.4 1169.9 1188.62C1169.87 1188.62 1169.87 1188.58 1169.87 1188.55C1180.97 1180.17 1191.97 1171.66 1202.91 1163.06ZM1214.84 937.247C1216.83 934.588 1218.75 931.866 1220.76 929.209C1221 931.296 1221.31 933.345 1221.6 935.398C1221.6 935.432 1221.57 935.432 1221.57 935.432C1221.47 935.432 1221.57 935.564 1221.57 935.564C1219.15 937.988 1216.94 940.407 1214.64 942.827C1214.71 940.983 1214.78 939.095 1214.84 937.247ZM1230.05 986.248C1230.08 986.248 1230.08 986.214 1230.08 986.214C1230.11 986.214 1230.11 986.248 1230.11 986.248C1231.09 991.765 1232.24 997.213 1233.58 1002.66C1227.77 1008.11 1221.91 1013.52 1216.08 1018.97C1215.68 1013.46 1215.35 1007.98 1215.11 1002.39V1002.36C1220.09 997.013 1225.07 991.564 1230.05 986.248ZM1244.96 1048.03C1247.07 1055.43 1249.25 1062.83 1251.61 1070.1C1242.94 1077.46 1234.26 1084.9 1225.48 1092.16C1224.1 1084.59 1222.85 1077.06 1221.78 1069.53V1069.39C1229.48 1062.26 1237.25 1055.19 1244.92 1048C1244.92 1048.03 1244.96 1048.03 1244.96 1048.03ZM1265.91 1111.5C1265.91 1111.53 1265.94 1111.57 1265.94 1111.63C1269.14 1120.34 1272.61 1128.99 1276.24 1137.53C1265.2 1146.44 1254.07 1155.15 1242.8 1163.63V1163.59C1240.07 1154.85 1237.62 1146.04 1235.29 1137.06C1235.29 1137.06 1235.29 1137.06 1235.29 1137.03C1245.56 1128.62 1255.79 1120.1 1265.91 1111.5ZM1258.44 1288.78C1258.44 1288.78 1258.44 1288.78 1258.44 1288.81C1264.23 1298.67 1270.32 1308.32 1276.81 1317.7V1317.73C1262.62 1327.72 1248.32 1337.27 1233.68 1346.45C1233.65 1346.45 1233.65 1346.45 1233.65 1346.45C1233.61 1346.42 1233.58 1346.39 1233.58 1346.35C1227.06 1337.48 1220.86 1328.09 1215.21 1318.2C1229.88 1308.79 1244.25 1298.89 1258.44 1288.78ZM1239.26 1253.87V1253.9C1239.26 1253.9 1239.26 1253.9 1239.23 1253.9C1225.41 1263.45 1211.21 1272.73 1196.81 1281.81C1196.78 1281.81 1196.78 1281.81 1196.78 1281.85C1196.75 1281.81 1196.75 1281.81 1196.75 1281.77C1192.87 1272.9 1189.32 1263.75 1186.12 1254.27C1186.12 1254.27 1186.12 1254.27 1186.12 1254.24C1199.6 1245.06 1212.96 1235.63 1226.12 1225.98C1226.12 1225.98 1226.12 1225.98 1226.15 1225.98V1226.02C1230.29 1235.44 1234.63 1244.72 1239.26 1253.87ZM1292.85 1174.82C1292.89 1174.86 1292.89 1174.86 1292.89 1174.89C1297.33 1184.48 1302.1 1194.03 1307.12 1203.49C1294.58 1213.57 1281.92 1223.22 1269.14 1232.6C1264.7 1223.06 1260.6 1213.27 1256.73 1203.28C1256.69 1203.28 1256.69 1203.25 1256.69 1203.21C1268.9 1193.9 1281.02 1184.48 1292.85 1174.82ZM1503.58 882.056C1596.77 778.268 1685.16 667.886 1755.94 547.378C1744.71 572.744 1732.2 597.525 1718.98 621.977C1718.04 623.592 1717.12 625.338 1716.18 627.089C1705.72 646.156 1694.89 664.891 1683.51 683.357C1683.29 683.724 1683.05 684.197 1682.67 684.635C1647.55 741.607 1608.37 796.023 1566.52 848.59C1488.57 943.705 1402.18 1032.77 1307.62 1111.84C1304.09 1102.72 1300.7 1093.41 1297.6 1084.12C1369.86 1020.52 1438.38 952.651 1503.58 882.056ZM1679.22 728.491C1676.18 735.588 1673.15 742.315 1670.13 749.275C1669.99 749.412 1669.99 749.412 1669.99 749.412C1662.8 765.118 1655.23 780.687 1647.22 796.023C1645.81 798.949 1644.29 801.842 1642.68 804.636C1634.2 820.913 1625.11 836.956 1615.7 852.76C1542.34 976.258 1446.83 1086.58 1337.06 1179.03H1337.03C1332.19 1169.34 1327.57 1159.56 1323.3 1149.64L1323.33 1149.6C1448.47 1043.32 1557.67 918.58 1644.9 779.746C1645.81 778.468 1646.65 777.19 1647.45 775.81C1650.12 771.507 1652.91 767.064 1655.6 762.659C1661.85 752.065 1668.05 741.505 1674.2 730.813C1674.3 730.676 1674.3 730.574 1674.3 730.442C1676.28 726.978 1678.27 723.38 1680.25 719.746C1683.95 713.121 1687.58 706.493 1690.95 699.869C1687.22 709.522 1683.29 719.072 1679.22 728.491ZM1634.3 864.398C1634.3 864.501 1634.3 864.633 1634.3 864.633C1587.68 985.443 1515.56 1096.12 1426.14 1189.72C1408.72 1207.86 1390.58 1225.51 1371.64 1242.33C1365.72 1232.54 1360.03 1222.69 1354.51 1212.73C1399.87 1172.94 1442.18 1130.3 1481.27 1085.67C1540.45 1016.59 1593.36 940.442 1635.25 859.053C1635.01 860.901 1634.67 862.652 1634.3 864.398ZM1408.81 1298.33C1408.81 1298.33 1408.81 1298.33 1408.78 1298.33C1402.55 1289.68 1396.37 1280.9 1390.54 1271.92C1411.24 1252.62 1430.91 1232.5 1449.62 1211.59C1511.72 1142.65 1564.63 1064.14 1604.66 979.858C1564.19 1099.96 1496.27 1208.8 1408.81 1298.33ZM1304.6 1297.62C1298.34 1287.9 1292.48 1277.91 1286.86 1267.78C1299.99 1257.93 1313.01 1247.71 1325.65 1237.15C1325.65 1237.15 1325.65 1237.15 1325.69 1237.15C1331.44 1247.11 1337.47 1256.92 1343.62 1266.65C1343.65 1266.65 1343.65 1266.68 1343.68 1266.71C1330.9 1277.27 1317.85 1287.63 1304.6 1297.62ZM1363.57 1296.24C1369.93 1305.46 1376.52 1314.4 1383.42 1323.31C1383.45 1323.31 1383.45 1323.31 1383.45 1323.35V1323.45C1371.61 1334.48 1359.53 1345.28 1347.12 1355.6H1347.09C1339.52 1346.62 1332.28 1337.37 1325.25 1327.93C1325.25 1327.89 1325.22 1327.86 1325.22 1327.81C1338.24 1317.73 1351.12 1307.14 1363.57 1296.24ZM1460.21 1410.86C1444.03 1415.4 1428.36 1419 1413.12 1422.03C1397.92 1409.15 1383.38 1395.42 1369.75 1380.96C1381.39 1370.74 1392.77 1360.17 1403.8 1349.15C1403.8 1349.11 1403.84 1349.11 1403.84 1349.11C1403.87 1349.15 1403.91 1349.21 1403.94 1349.25C1421.7 1370.71 1440.5 1391.22 1460.21 1410.86ZM992.014 1319C991.204 1319.49 990.263 1319.81 989.457 1320.29C975.733 1326.1 948.28 1337.61 934.556 1343.42C933.278 1343.9 932.102 1344.37 930.819 1344.84C931.864 1342.61 933.044 1340.3 934.42 1338.08C934.455 1338.05 934.489 1337.98 934.522 1337.95C953.964 1328.33 973.041 1317.97 991.844 1307.27C991.844 1311.21 991.844 1315.15 992.083 1318.97C992.083 1318.97 992.048 1319 992.014 1319ZM902.327 1352.97C902.094 1353.89 901.995 1354.7 901.893 1355.54C892.677 1358.77 883.861 1361.56 875.011 1364.25H874.879C874.777 1364.25 874.679 1364.35 874.543 1364.35C873.835 1364.58 873.128 1364.75 872.424 1364.98C882.514 1361.19 892.472 1357.15 902.362 1352.85C902.362 1352.88 902.362 1352.91 902.327 1352.97ZM1710.73 1557.06C1676.56 1539.68 1643.69 1519.89 1612.3 1498.01C1609.47 1496.12 1606.68 1494.13 1603.89 1492.15C1565.41 1464.63 1529.25 1434.1 1495.98 1400.63C1496.32 1400.5 1496.61 1400.3 1496.95 1400.16C1496.61 1400.3 1496.27 1400.4 1495.91 1400.53H1495.87C1471.82 1376.49 1449.25 1351.07 1428.33 1324.3C1428.29 1324.26 1428.26 1324.18 1428.22 1324.15V1324.12C1537.42 1207.62 1613.04 1060.21 1638.27 898.469V898.269C1651.76 860.735 1662.46 822.29 1670.23 783.243C1670.23 783.243 1670.23 783.107 1670.36 783.107C1686.51 743.593 1700 703.132 1710.26 661.73C1728.87 623.489 1745.14 584.172 1758.07 543.855C1758.07 543.714 1758.07 543.714 1758.17 543.616C1758.17 543.583 1758.17 543.583 1758.17 543.539C1771.49 520.714 1784.24 497.573 1796.18 473.963C1713.89 597.896 1618.25 711.034 1516.93 818.489C1442.62 896.084 1365.42 971.181 1284.54 1041.95C1282.15 1033.64 1279.94 1025.26 1277.99 1016.89C1277.95 1016.86 1277.95 1016.82 1277.95 1016.82C1326.2 970.98 1373.76 924.399 1420.76 877.417C1567.05 728.388 1708.98 574.183 1833.58 406.394C1689.71 557.542 1543 704.712 1393.3 849.702C1351.8 890.128 1309.98 930.252 1267.93 970.142C1267.93 970.142 1267.93 970.142 1267.93 970.108C1266.69 963.313 1265.54 956.416 1264.57 949.422C1264.57 949.422 1264.6 949.422 1264.6 949.388C1264.6 949.388 1264.49 949.29 1264.6 949.29C1365.78 841.361 1469.3 735.588 1573.25 630.352C1671.31 532.11 1770.04 434.682 1870.96 338.759C1703.16 463.396 1548.96 605.227 1399.87 751.495C1352.16 799.188 1304.83 847.414 1258.31 896.381V896.484C1258.31 896.484 1258.31 896.518 1258.28 896.518V896.484C1257.87 891.777 1257.57 887.065 1257.34 882.358C1351.09 764.543 1454.96 654.565 1563.82 550.41C1671.31 449.077 1784.48 353.46 1908.4 271.19C1758.73 346.993 1624.74 451.967 1500.24 563.758C1413.69 643.635 1331.17 728.491 1255.71 819.163V815.499C1255.76 815.499 1255.76 815.465 1255.76 815.465V815.329C1359.63 656.516 1492.07 515.927 1638.74 395.838C1733.51 320.362 1834.57 253.295 1945.88 203.621C1868.3 228.18 1794.66 264.898 1724.66 306.774C1553.27 411.432 1402.62 549.33 1281.05 709.522C1281.12 709.386 1281.18 709.253 1281.28 709.083C1303.42 670.139 1327.64 632.674 1353.04 596.988C1456.35 454.824 1588.15 331.693 1739.56 241.659C1815.52 196.456 1897.1 160.032 1983.18 135.986C1805.8 167.372 1642.68 259.456 1506.6 376.023C1435.09 438.51 1368.35 509.678 1311.43 587.673C1361.92 490.169 1429.47 401.04 1507.58 326.251C1647.97 192.083 1826.82 96.7707 2020.59 68.3514C1822.45 79.6493 1632.72 170.491 1485.75 302.706C1428.43 354.027 1376.58 412.916 1332.42 477.322C1461.87 204.09 1740.8 10.0626 2058 0.814939C1649.1 -17.9422 1294.61 289.445 1226.48 680.261C1212.56 717.492 1201.18 755.567 1192.61 794.175C1175.58 834.029 1161.33 874.89 1150.29 916.697C1150.29 916.731 1150.29 916.731 1150.29 916.731C1131.25 954.231 1113.69 993.247 1099.52 1033.2C1077.7 1069.79 1056.03 1107.53 1037.6 1146.61C1037.49 1146.74 1037.36 1146.91 1037.26 1147.05C1018.29 1170.66 999.547 1194.5 981.314 1218.68C976.504 1225.65 968.767 1236.1 959.921 1248.48C951.174 1255.82 942.596 1263.31 933.816 1270.54C907.138 1292.27 879.825 1313.36 851.7 1332.06C845.074 1336.56 836.429 1341.77 828.116 1345.95C822.735 1347.79 817.456 1349.48 812.309 1351.02C813.417 1343.35 817.792 1334.11 821.29 1326.65C836.16 1296.51 855.906 1267.69 875.318 1239.07C894.995 1210.57 915.349 1182.36 935.937 1154.28C912.016 1179.6 888.638 1205.44 866.268 1232.2C838.952 1266.68 808.171 1300.44 791.486 1342.76C790.008 1346.45 789.163 1351.7 789.568 1356.94C673.307 1381.94 633.072 1306.46 748.894 1072.28C709 1135.34 670.277 1202.77 660.022 1278.14C652.382 1347.09 684.811 1379.18 730.965 1387.85C730.73 1387.82 730.462 1387.85 730.228 1387.85C730.091 1387.85 730.091 1387.85 729.989 1387.85C551.937 1385.64 482.97 1237.99 561.924 990.321C493.333 1139.95 470.422 1362.74 670.55 1413.65C781.056 1437.5 895.702 1406.32 1000.73 1358.56C1000.76 1358.52 1000.76 1358.52 1000.8 1358.52C1003.55 1365.05 1007.15 1371 1011.29 1376.49C1011.22 1376.52 1011.15 1376.55 1011.09 1376.55C896.175 1421.22 773.488 1442.04 651.377 1419.37C405.769 1367.74 332.937 1133.22 374.818 908.357C324.459 1084.63 351.809 1292.84 515.537 1400.16C593.446 1451.93 689.051 1470.39 781.26 1467.13C875.587 1462.15 966.414 1439.72 1052.36 1404H1052.47C1052.5 1404 1052.5 1404 1052.5 1404C1066.8 1408 1083.78 1409.34 1104.07 1407.1C1113.32 1405.84 1122.43 1404.13 1131.45 1402.08C980.407 1472.98 811.703 1502.84 646.596 1469.11C342.022 1407.97 166.182 1128.44 187.814 826.396C138.264 1138.91 322.844 1438.87 638.355 1507.16C821.627 1547.14 1010.38 1510.38 1174.95 1424.95C1190.05 1432.48 1206.1 1438.07 1222.96 1442.04C1103.87 1509.81 967.454 1548.18 823.71 1546.44C381.917 1550.26 13.7282 1184.14 0.809383 744.397C-20.1156 1201.94 367.621 1591.43 823.71 1587.6C991.073 1588.98 1149.11 1537.48 1281.21 1449.14C1288.92 1449.37 1296.45 1449.37 1304.15 1449H1304.26C1331.61 1465.25 1360.97 1477.72 1391.56 1486.71C1422.16 1495.71 1454.03 1501.23 1486.42 1503.62C1544.76 1534.09 1608.6 1554.91 1675.48 1565.06C1791.16 1622.38 1921.49 1652.44 2058 1646.19C1946.04 1643.23 1838.43 1616.76 1740.57 1571.56C1730.52 1566.95 1720.56 1562.17 1710.73 1557.06Z" fill="white"/>
<path d="M2933.4 1317.36C2869.73 1366.47 2783.77 1391 2675.54 1391C2566.4 1391 2479.08 1361.92 2413.59 1303.73C2347.19 1245.55 2314 1169.18 2314 1074.61H2434.07C2434.07 1137.35 2456.33 1187.36 2500.91 1224.63C2545.47 1261.92 2603.69 1280.54 2675.54 1280.54C2836.54 1280.54 2917.03 1222.36 2917.03 1105.97C2917.03 1062.34 2902.47 1028.71 2873.37 1005.06C2836.99 975.977 2770.13 953.232 2672.82 936.867C2560.94 916.88 2479.53 888.244 2428.61 850.952C2371.3 809.143 2342.65 749.584 2342.65 672.297C2342.65 591.383 2372.67 526.371 2432.69 477.276C2492.72 429.095 2572.76 405 2672.82 405C2776.51 405 2858.37 431.373 2918.39 484.098C2978.42 536.833 3008.44 608.667 3008.44 699.576H2891.11C2891.11 643.212 2872.9 598.649 2836.54 565.92C2797.42 532.3 2743.29 515.462 2674.18 515.462C2604.13 515.462 2550.03 530.022 2511.82 559.098C2477.25 585.482 2459.98 621.838 2459.98 668.201C2459.98 710.95 2475.43 743.21 2506.37 765.032C2540.01 788.684 2603.69 809.144 2697.37 826.406C2811.98 848.218 2893.83 876.861 2942.95 912.322C3002.99 956.879 3033 1021.43 3033 1105.97C3033 1196.91 2999.78 1267.37 2933.4 1317.36Z" fill="white"/>
<path d="M3446.78 1509.81C3399.47 1636.24 3310.32 1692.66 3179.32 1679.01V1572.57C3223.89 1576.2 3258.01 1569.84 3281.67 1553.47C3304.39 1538.91 3323.5 1510.7 3338.98 1468.86L3375.82 1370.63L3107 672H3232.54L3437.23 1231.45L3637.82 672H3762L3446.78 1509.81Z" fill="white"/>
<path d="M5131.27 837.045C5084.84 786.056 5029.32 760.548 4964.67 760.548C4899.13 760.548 4843.14 786.056 4796.71 837.045C4750.27 888.059 4727.06 950.424 4727.06 1024.19C4727.06 1097.95 4750.27 1159.89 4796.71 1209.96C4843.14 1260.05 4899.13 1285.1 4964.67 1285.1C5030.23 1285.1 5086.21 1259.61 5132.64 1208.6C5179.07 1157.61 5202.29 1096.13 5202.29 1024.19C5202.29 951.341 5178.6 888.954 5131.27 837.045ZM5317 1375.25H5205.02V1265.97C5144.93 1350.67 5063.9 1393 4961.94 1393C4864.52 1393 4781.69 1357.97 4713.4 1287.83C4645.13 1216.79 4611 1128.92 4611 1024.19C4611 919.476 4645.58 831.135 4714.77 759.184C4783.06 689.067 4866.35 654 4964.67 654C5063.9 654 5147.66 689.519 5215.94 760.548C5283.3 832.5 5317 920.372 5317 1024.19V1375.25Z" fill="white"/>
<path d="M5748 1375.34C5665.1 1385.34 5598.61 1367.15 5548.51 1320.73C5496.6 1274.31 5470.64 1206.96 5470.64 1118.66V782.781H5375V672.194H5470.64V522H5585.41V672.194H5745.26V782.781H5585.41V1118.66C5585.41 1226.07 5639.59 1276.14 5748 1268.84V1375.34Z" fill="white"/>
<path d="M7030 770.097C6965.42 766.478 6912.7 781.021 6871.77 813.798C6827.21 849.299 6804.94 900.741 6804.94 968.094V1375H6689V671.787H6800.85V750.981C6854.49 675.43 6930.88 643.583 7030 655.398V770.097Z" fill="white"/>
<path d="M7626.76 950.169C7612.2 893.762 7583.56 847.354 7540.82 810.958C7498.98 776.39 7452.14 759.093 7400.3 759.093C7349.36 759.093 7302.98 775.943 7261.16 809.586C7215.68 845.075 7185.67 891.951 7171.13 950.169H7626.76ZM7738.61 1156.26C7687.66 1312.77 7577.18 1391 7407.13 1391C7306.17 1391 7221.14 1355.52 7152.03 1284.55C7081.99 1213.58 7047 1126.7 7047 1023.87C7047 921.974 7081.55 835.076 7150.67 763.183C7219.78 690.409 7302.98 654 7400.3 654C7495.79 654 7577.65 689.488 7645.85 760.456C7719.51 835.992 7755.88 933.787 7754.98 1053.89H7164.32C7171.58 1123.97 7199.32 1180.82 7247.52 1224.5C7292.99 1265.44 7346.19 1285.92 7407.13 1285.92C7506.25 1285.92 7575.82 1242.72 7615.84 1156.26H7738.61Z" fill="white"/>
<path d="M4153 661C3959.14 661 3802 818.337 3802 1012.45V1382H3921.87V1012.45C3921.87 884.898 4025.61 781.021 4153 781.021C4280.5 781.021 4384.13 884.898 4384.13 1012.45V1382H4504V1012.45C4504 818.337 4346.86 661 4153 661Z" fill="white"/>
<path d="M6200.5 1390C6394.64 1390 6552 1232.66 6552 1038.56V669H6431.96V1038.56C6431.96 1166.1 6328.07 1269.98 6200.5 1269.98C6072.82 1269.98 5969.04 1166.1 5969.04 1038.56V669H5849V1038.56C5849 1232.66 6006.36 1390 6200.5 1390Z" fill="white"/>
</svg>
